<?xml version="1.0" encoding="utf-8"?>
<!-- Generator: Adobe Illustrator 21.1.0, SVG Export Plug-In . SVG Version: 6.00 Build 0)  -->
<svg version="1.1" id="圖層_1" xmlns="http://www.w3.org/2000/svg" xmlns:xlink="http://www.w3.org/1999/xlink" x="0px" y="0px"
	 viewBox="0 0 500 500" style="enable-background:new 0 0 500 500;" xml:space="preserve">
<style type="text/css">
	.st0{fill:#FFFFFF;}
</style>
<path class="st0" d="M192.2,31.6c0,0,1.9-10.4,14.4-10.6l199.8-2.9c0,0,16.6-2.3,16.8,10.2c0,0,2.2,10.4-8,20.9L311.3,204.7
	c0,0-10.3,10.6,8.4,8.2L378,212c0,0,16.6-2.3,10.7,20.7L102.9,478.2c0,0-14.4,8.5-20.8,0.3c0,0-10.5-6.1,3.7-33.4l85.7-193.7
	c0,0,6.1-12.6-6.4-10.3l-60.4-1.2c0,0-9.7-7.7-2.4-22.9L192.2,31.6z"/>
</svg>
